# xmcd CD database file
#
# Track frame offsets:
#	150
#	20465
#	42472
#	58400
#	79517
#	106337
#	126087
#	141140
#	162720
#	186847
#	204200
#	220442
#
# Disc length: 3049 seconds
#
# Revision: 0
# Processed by: cddbd v1.4PL0 Copyright (c) Steve Scherf et al.
# Submitted via: CDex 1.40Release
#
DISCID=b00be70c
DTITLE=Drippin' Honey - Love the curse
DYEAR=1900
DGENRE=Blues
TTITLE0=Like a brother
TTITLE1=Love the curse
TTITLE2=Damage done
TTITLE3=In the money
TTITLE4=Crossing t's
TTITLE5=This 'n' that
TTITLE6=Flip a coin
TTITLE7=Needle and the spoon
TTITLE8=Baby you were right
TTITLE9=In the red
TTITLE10=So well
TTITLE11=Speak of the devil
EXTD=ID3G: 0
EXTT0=
EXTT1=
EXTT2=
EXTT3=
EXTT4=
EXTT5=
EXTT6=
EXTT7=
EXTT8=
EXTT9=
EXTT10=
EXTT11=
PLAYORDER=
